# xmcd
#
# Track frame offsets: 
#        150
#        21347
#        45045
#        63698
#        76020
#        97714
#        119217
#        143501
#        162829
#        190268
#        211165
#        224720
#        244324
#        259883
#        275803
#        303995
#
# Disc length: 4303 seconds
#
# Revision: 0
# Processed by: cddbd v1.5.2PL0 Copyright (c) Steve Scherf et al.
# Submitted via: ExactAudioCopyFreeDBPlugin 1.0
#
DISCID=e610cd10
DTITLE=Zbiorowy - Wojciech Mann prezentuje Nieprzeboje 3 CD1
DYEAR=2015
DGENRE=Rock
TTITLE0=Rodrigo y Gabriela - Stairway to Haven
TTITLE1=Scorpion Child - Keep Goin`
TTITLE2=Black Rebel Motorcycle Club - Lose Yourself
TTITLE3=Rita Chiarelli - If It Was Love
TTITLE4=Lloyd Jones - Give a Little
TTITLE5=Blues Pills - Little Sun
TTITLE6=Rachael Yamagata - Over and Over
TTITLE7=Tony Joe White and Jessi Colter - Firefiles in the Storm
TTITLE8=James Solberg - L.A. Blues
TTITLE9=The Kelly Richey Band - It`s Rainin in My Head
TTITLE10=Nellie Lutcher - He`s a Real Gone Guy
TTITLE11=The Mavericks - Dance The Night Away
TTITLE12=Carolyn Wonderland - Misunderstood
TTITLE13=Royal Blood - Little Monster
TTITLE14=Grand Funk Railroad - Gimme Shelter
TTITLE15=The Jolly Boys - Rehab
EXTD=
EXTT0=
EXTT1=
EXTT2=
EXTT3=
EXTT4=
EXTT5=
EXTT6=
EXTT7=
EXTT8=
EXTT9=
EXTT10=
EXTT11=
EXTT12=
EXTT13=
EXTT14=
EXTT15=
PLAYORDER=
